<?xml version="1.0"?>
<svg xmlns="http://www.w3.org/2000/svg" xmlns:xlink="http://www.w3.org/1999/xlink" xmlns:svgjs="http://svgjs.com/svgjs" version="1.1" width="512" height="512" x="0" y="0" viewBox="0 0 512 512" style="enable-background:new 0 0 512 512" xml:space="preserve" class=""><g><g xmlns="http://www.w3.org/2000/svg"><g><path d="m61.363 299.963h7.994c5.523 0 10-4.478 10-10s-4.477-10-10-10h-7.994c-5.523 0-10 4.478-10 10s4.477 10 10 10z" fill="#fe5000" data-original="#000000" style="" class=""/><path d="m170.041 299.963c5.523 0 10-4.478 10-10s-4.477-10-10-10h-60.66c-5.523 0-10 4.478-10 10s4.477 10 10 10z" fill="#fe5000" data-original="#000000" style="" class=""/><path d="m61.363 347.43h108.678c5.523 0 10-4.478 10-10s-4.477-10-10-10h-108.678c-5.523 0-10 4.478-10 10s4.477 10 10 10z" fill="#fe5000" data-original="#000000" style="" class=""/><path d="m392.72 206.748v-167.719c0-17.937-14.608-32.529-32.563-32.529h-327.622c-17.94 0-32.535 14.593-32.535 32.529v118.878c0 5.522 4.477 10 10 10s10-4.478 10-10v-118.878c0-6.909 5.623-12.529 12.535-12.529h92.754v129.707c0 3.624 1.961 6.965 5.125 8.731s7.037 1.684 10.122-.219l55.81-34.398 55.81 34.398c6.554 4.04 15.247-.85 15.247-8.513v-129.706h92.754c6.927 0 12.563 5.62 12.563 12.529v164.797c-3.903-.303-7.847-.461-11.826-.461-83.32 0-151.106 67.769-151.106 151.067 0 8.406.702 16.65 2.029 24.686h-179.282c-6.912 0-12.535-5.633-12.535-12.557v-118.878c0-5.522-4.477-10-10-10s-10 4.478-10 10v118.879c0 17.952 14.595 32.557 32.535 32.557h184.002c19.103 61.551 76.591 106.381 144.357 106.381 83.32 0 151.106-67.769 151.106-151.067 0-72.386-51.192-133.034-119.28-147.685zm-145.317-68.451-45.81-28.235c-3.217-1.982-7.277-1.982-10.494 0l-45.81 28.235v-111.797h102.114zm113.491 347.203c-72.292 0-131.106-58.797-131.106-131.067s58.814-131.067 131.106-131.067 131.106 58.796 131.106 131.067-58.814 131.067-131.106 131.067z" fill="#fe5000" data-original="#000000" style="" class=""/><path d="m379.064 296.513h-38.2l17.829-17.809c3.907-3.903 3.911-10.235.008-14.143s-10.234-3.91-14.143-.008l-34.922 34.884c-3.855 3.821-3.855 10.33 0 14.15l34.922 34.885c1.953 1.95 4.51 2.925 7.067 2.925 2.561 0 5.122-.978 7.075-2.933 3.903-3.907 3.9-10.239-.007-14.143l-17.829-17.81h38.201c24.198 0 43.885 19.681 43.885 43.871 0 24.206-19.687 43.899-43.885 43.899h-90.225c-5.523 0-10 4.478-10 10s4.477 10 10 10h90.225c35.227 0 63.885-28.665 63.885-63.899-.001-35.217-28.659-63.869-63.886-63.869z" fill="#fe5000" data-original="#000000" style="" class=""/><path d="m10 212.823c5.523 0 10-4.506 10-10.028s-4.477-10-10-10-10 4.478-10 10v.057c0 5.522 4.477 9.971 10 9.971z" fill="#fe5000" data-original="#000000" style="" class=""/></g></g></g></svg>
